<svg width="512" height="512" viewBox="0 0 512 512" fill="none" xmlns="http://www.w3.org/2000/svg">
<path d="M352.92 80C288 80 256 144 256 144C256 144 224 80 159.08 80C106.32 80 64.54 124.14 64 176.81C62.9 286.14 150.73 363.89 247 429.23C249.654 431.036 252.79 432.001 256 432.001C259.21 432.001 262.346 431.036 265 429.23C361.26 363.89 449.09 286.14 448 176.81C447.46 124.14 405.68 80 352.92 80V80Z" stroke="black" stroke-width="32" stroke-linecap="round" stroke-linejoin="round"/>
<path d="M233.5 136.5C235.667 139 240.2 146.4 241 150C241.8 153.6 242 167.833 242 174.5" stroke="black"/>
<path d="M279 136.5C276.833 139 272.3 146.4 271.5 150C270.7 153.6 270.5 167.833 270.5 174.5" stroke="black"/>
<rect x="241" y="135" width="30" height="287" fill="black"/>
</svg>
